<?xml version="1.0" standalone="no"?>
<!DOCTYPE svg PUBLIC "-//W3C//DTD SVG 20010904//EN"
 "http://www.w3.org/TR/2001/REC-SVG-20010904/DTD/svg10.dtd">
<svg version="1.0" xmlns="http://www.w3.org/2000/svg"
 width="344.000000pt" height="347.000000pt" viewBox="0 0 344.000000 347.000000"
 preserveAspectRatio="xMidYMid meet">
<metadata>Created by letter-logo.com</metadata>
<g transform="translate(0.000000,347.000000) scale(0.100000,-0.100000)"
fill="#000000" stroke="none">
<path d="M573 3308 c7 -190 22 -261 77 -368 78 -149 187 -257 334 -332 144
-73 183 -78 567 -78 l337 0 7 -177 c4 -98 5 -291 3 -430 -5 -235 -7 -254 -28
-290 -26 -46 -60 -73 -109 -84 -76 -17 -165 32 -197 108 -9 21 -14 73 -14 148
l0 115 -165 0 -165 0 0 -127 c0 -148 16 -229 62 -314 100 -190 324 -297 528
-255 197 41 347 179 395 361 13 50 15 153 15 667 l0 607 -497 3 -498 3 -69 33
c-110 52 -194 132 -226 216 l-10 26 791 0 790 0 -3 -782 c-4 -781 -4 -783 -26
-858 -84 -276 -282 -469 -557 -541 -109 -29 -279 -29 -386 -1 -188 50 -361
176 -464 337 -91 141 -125 274 -125 488 l0 137 -166 0 -167 0 6 -187 c6 -215
22 -297 88 -453 270 -633 1048 -871 1623 -497 202 132 364 334 442 552 64 181
64 179 64 1207 l0 928 -1131 0 -1132 0 6 -162z"/>
<path d="M3107 2508 c-4 -1049 -2 -1018 -63 -1209 -136 -431 -500 -790 -926
-913 -271 -78 -596 -71 -850 20 -418 150 -735 474 -866 884 -48 150 -63 249
-69 448 l-6 182 -161 -2 -161 -3 -3 -95 c-4 -128 13 -338 38 -459 122 -598
569 -1093 1155 -1281 208 -66 266 -74 525 -74 268 0 342 11 554 84 637 220
1082 775 1155 1442 7 62 11 433 11 1018 l0 920 -164 0 -165 0 -4 -962z"/>
</g>
</svg>
